<?xml version='1.0' encoding='iso-8859-1'?>
<svg version="1.1" xmlns="http://www.w3.org/2000/svg" viewBox="0 0 137.144 137.144" xmlns:xlink="http://www.w3.org/1999/xlink" fill="currentColor" stroke="currentColor" stroke-width="1" enable-background="new 0 0 137.144 137.144">
  <g>
    <g>
      <path d="m109.715,0h-82.286c-15.149,0-27.429,12.28-27.429,27.429v82.286c0,15.149 12.28,27.429 27.429,27.429h82.286c15.149,0 27.429-12.28 27.429-27.429v-82.286c0-15.149-12.28-27.429-27.429-27.429zm13.715,102.858c0,11.361-9.21,20.571-20.571,20.571-26.858,0.291-10.597,0-27.429,0h-13.715c-16.831,0 4,0.291-27.429,0-11.361,0-20.572-9.21-20.572-20.571v-68.572c0-11.362 9.21-20.572 20.572-20.572h68.572c11.361,0 20.571,9.21 20.571,20.572v68.572zm-34.286-51.43c0-13.254-9.21-24-20.571-24-11.362,3.55271e-15-20.572,10.746-20.572,24 0,13.256 9.21,24.001 20.571,24.001 11.362,0 20.572-10.745 20.572-24.001zm-16.762,24.001h-3.81-3.809c-16.832,0-30.477,12.281-30.477,27.429l.001,20.572h68.572v-20.572c0-15.149-13.645-27.429-30.477-27.429z"/>
    </g>
  </g>
</svg>
